<?xml version="1.0" standalone="no"?>
<!DOCTYPE svg PUBLIC "-//W3C//DTD SVG 20010904//EN"
 "http://www.w3.org/TR/2001/REC-SVG-20010904/DTD/svg10.dtd">
<svg version="1.0" xmlns="http://www.w3.org/2000/svg"
 width="200.000000pt" height="200.000000pt" viewBox="0 0 200.000000 200.000000"
 preserveAspectRatio="xMidYMid meet">
<metadata>
Created by potrace 1.11, written by Peter Selinger 2001-2013
</metadata>
<g transform="translate(0.000000,200.000000) scale(0.100000,-0.100000)"
fill="#000000" stroke="none">
<path d="M845 1886 c-463 -91 -771 -529 -711 -1009 10 -79 50 -216 83 -280
213 -421 683 -604 1113 -431 96 38 187 101 275 189 178 177 266 388 267 635 0
109 -4 144 -21 220 -73 319 -328 584 -641 664 -89 23 -277 29 -365 12z m350
-31 c82 -20 213 -79 282 -126 191 -131 331 -358 368 -594 10 -65 7 -228 -5
-295 -72 -397 -403 -695 -798 -717 -617 -35 -1062 609 -832 1206 106 275 348
477 640 536 86 17 258 12 345 -10z"/>
<path d="M530 1580 c0 -5 5 -10 10 -10 13 0 13 -103 -1 -117 -7 -7 -6 -12 4
-16 21 -8 41 8 31 24 -15 25 -12 37 10 41 31 6 59 -5 62 -25 1 -9 -2 -17 -7
-17 -14 0 -11 -17 4 -23 19 -7 45 11 32 21 -13 8 -16 112 -3 112 4 0 8 4 8 10
0 5 -11 9 -25 8 -25 -2 -32 -12 -16 -22 22 -14 3 -41 -31 -44 -29 -2 -36 1
-41 17 -3 12 -1 24 4 27 18 10 9 24 -16 24 -14 0 -25 -4 -25 -10z"/>
<path d="M715 1558 c-39 -46 -24 -96 34 -116 58 -20 115 41 91 97 -23 56 -86
66 -125 19z m95 -8 c56 -56 -23 -126 -82 -73 -10 9 -18 24 -18 35 0 24 35 58
60 58 11 0 29 -9 40 -20z"/>
<path d="M860 1580 c0 -5 5 -10 10 -10 6 0 10 -27 10 -61 0 -37 -4 -58 -10
-54 -5 3 -10 1 -10 -4 0 -6 11 -11 24 -11 22 0 23 3 19 48 l-4 47 30 -35 c16
-19 31 -33 33 -30 2 3 15 19 29 36 l26 32 1 -36 c1 -19 -3 -41 -9 -49 -9 -10
-6 -13 14 -13 27 0 45 16 26 22 -16 5 -18 88 -2 104 10 10 10 15 1 20 -11 7
-77 -60 -78 -78 0 -20 -22 -4 -51 37 -30 42 -59 59 -59 35z"/>
<path d="M1075 1515 c0 -71 1 -75 23 -75 12 0 22 5 22 10 0 6 -4 10 -10 10 -5
0 -10 12 -10 26 0 14 4 22 10 19 15 -9 47 12 53 35 6 24 -26 50 -63 50 -25 0
-25 -1 -25 -75z m63 32 c4 -21 -27 -35 -38 -17 -12 19 0 42 19 38 9 -2 17 -11
19 -21z"/>
<path d="M1180 1581 c0 -6 4 -12 8 -15 10 -6 8 -82 -3 -108 -6 -15 -2 -18 19
-18 14 0 26 5 26 10 0 6 -4 10 -9 10 -5 0 -8 25 -8 55 0 30 3 55 8 55 5 0 9 5
9 10 0 6 -11 10 -25 10 -14 0 -25 -4 -25 -9z"/>
<path d="M1283 1578 c-61 -29 -45 -131 22 -138 33 -4 45 -1 45 11 0 7 -9 9
-21 6 -14 -4 -29 2 -45 18 -29 29 -30 49 -4 75 23 23 50 26 68 8 9 -9 12 -8
12 4 0 27 -38 35 -77 16z"/>
<path d="M1375 1580 c-3 -5 -1 -10 4 -10 15 0 14 -107 0 -116 -8 -4 -7 -9 2
-14 24 -15 38 0 32 36 -3 19 -2 34 2 34 12 0 44 -44 45 -60 0 -9 9 -16 20 -16
27 0 25 8 -10 46 -38 41 -38 53 3 79 17 11 30 21 27 22 -24 7 -50 4 -50 -6 0
-6 -10 -20 -22 -31 l-21 -19 6 33 c6 27 4 32 -13 32 -10 0 -22 -4 -25 -10z"/>
<path d="M794 1342 c-17 -11 -22 -35 -12 -54 10 -21 51 -24 67 -4 18 21 -5 66
-34 66 -5 0 -15 -4 -21 -8z"/>
<path d="M1000 1336 c-19 -23 -8 -61 18 -64 46 -7 72 47 33 68 -26 14 -36 13
-51 -4z"/>
<path d="M1216 1328 c-19 -27 -5 -58 27 -58 43 0 60 35 31 64 -21 22 -40 20
-58 -6z"/>
<path d="M743 993 c-23 -9 -14 -68 18 -116 38 -57 39 -58 90 -59 46 0 36 7
170 -143 98 -110 127 -133 147 -113 20 20 -4 50 -130 163 -113 103 -128 120
-125 143 7 43 -9 70 -60 102 -44 28 -80 36 -110 23z"/>
<path d="M1107 947 c-44 -41 -57 -59 -57 -82 0 -18 -10 -40 -27 -57 -23 -24
-24 -28 -9 -34 11 -4 22 0 31 13 9 12 30 22 55 26 32 4 49 15 83 52 23 27 48
56 55 66 11 16 11 18 -4 12 -13 -5 -15 -3 -9 8 5 8 -3 3 -18 -10 -14 -13 -24
-28 -21 -35 2 -6 -6 -17 -18 -25 -23 -14 -23 -14 -4 8 23 25 11 28 -18 4 -12
-10 -2 3 22 28 26 28 41 51 37 61 -5 11 -13 8 -40 -18 -19 -18 -35 -36 -35
-40 0 -4 11 3 25 16 14 13 25 19 25 14 0 -6 -14 -21 -31 -33 -18 -13 -28 -18
-24 -11 6 10 3 12 -11 6 -11 -4 1 13 26 38 61 63 36 58 -33 -7z m93 23 c0 -5
-5 -10 -11 -10 -5 0 -7 5 -4 10 3 6 8 10 11 10 2 0 4 -4 4 -10z m15 -49 c-3
-6 -11 -11 -17 -11 -6 0 -6 6 2 15 14 17 26 13 15 -4z"/>
<path d="M861 662 c-53 -49 -72 -73 -70 -87 3 -11 12 -21 21 -23 18 -3 43 18
112 96 38 43 45 57 35 68 -6 8 -14 14 -18 14 -3 0 -39 -31 -80 -68z"/>
<path d="M710 400 c-8 -5 -24 -7 -35 -4 -27 6 -54 -11 -39 -26 8 -8 26 -3 65
15 30 13 47 25 39 25 -8 0 -22 -5 -30 -10z m-30 -14 c0 -2 -9 -6 -20 -9 -11
-3 -18 -1 -14 4 5 9 34 13 34 5z"/>
<path d="M1334 373 c1 -19 5 -28 10 -23 6 6 5 18 -1 32 -10 21 -10 21 -9 -9z"/>
<path d="M805 380 c6 -10 4 -12 -8 -7 -9 3 -19 1 -23 -5 -4 -6 -3 -8 4 -4 6 3
12 -1 14 -9 2 -13 5 -12 15 4 9 15 10 22 1 27 -7 5 -8 3 -3 -6z"/>
<path d="M1296 359 c-4 -14 -9 -19 -13 -11 -7 17 -24 15 -17 -2 3 -8 0 -17 -5
-21 -6 -3 -9 -11 -6 -16 9 -14 25 -11 20 4 -3 6 4 18 16 26 20 12 21 11 15 -6
-5 -13 -4 -15 4 -7 7 7 7 19 2 34 l-9 24 -7 -25z"/>
<path d="M679 354 c-7 -9 -8 -14 -1 -14 6 0 13 4 17 10 3 5 12 7 20 3 8 -3 15
-1 15 4 0 15 -38 13 -51 -3z"/>
<path d="M726 345 c-11 -8 -17 -17 -14 -20 3 -3 16 3 29 14 27 23 14 28 -15 6z"/>
<path d="M746 325 c-11 -8 -18 -17 -15 -19 2 -2 15 4 28 15 27 22 15 26 -13 4z"/>
<path d="M1232 310 c0 -19 2 -27 5 -17 2 9 2 25 0 35 -3 9 -5 1 -5 -18z"/>
<path d="M777 315 c-9 -7 -17 -16 -17 -20 0 -4 6 -3 13 3 15 13 42 -1 33 -17
-4 -6 -3 -11 2 -11 6 0 13 7 16 16 3 8 10 13 15 9 5 -3 13 0 17 6 5 9 -1 10
-20 5 -17 -4 -25 -3 -22 3 10 15 -18 20 -37 6z"/>
<path d="M1212 305 c0 -16 2 -22 5 -12 2 9 2 23 0 30 -3 6 -5 -1 -5 -18z"/>
<path d="M984 280 c-15 -22 -24 -43 -20 -47 3 -3 6 -1 6 6 0 7 5 9 11 6 6 -4
16 1 24 11 9 13 10 21 2 26 -7 4 -7 11 2 22 8 9 11 16 7 16 -3 0 -18 -18 -32
-40z m7 -23 c-10 -9 -11 -8 -5 6 3 10 9 15 12 12 3 -3 0 -11 -7 -18z"/>
<path d="M1182 290 c0 -19 2 -27 5 -17 2 9 2 25 0 35 -3 9 -5 1 -5 -18z"/>
<path d="M1136 279 c-17 -42 -31 -111 -18 -89 5 8 12 32 16 52 4 21 11 40 15
43 5 3 7 -5 5 -17 -4 -22 -4 -21 6 1 7 16 7 28 1 34 -7 7 -15 -1 -25 -24z"/>
<path d="M855 280 c-16 -17 -16 -20 -3 -15 9 4 19 13 22 21 7 19 2 18 -19 -6z"/>
<path d="M915 281 c3 -5 -2 -17 -11 -25 -8 -9 -11 -16 -5 -16 6 0 15 9 21 19
13 25 13 31 -1 31 -5 0 -8 -4 -4 -9z"/>
<path d="M1036 268 c-22 -31 -20 -39 6 -29 22 8 33 37 18 46 -5 3 -16 -5 -24
-17z m17 -3 c-3 -9 -8 -14 -10 -11 -3 3 -2 9 2 15 9 16 15 13 8 -4z"/>
<path d="M1086 274 c-3 -9 -3 -20 0 -25 8 -13 34 9 34 27 0 19 -26 18 -34 -2z
m16 -16 c-7 -7 -12 -8 -12 -2 0 14 12 26 19 19 2 -3 -1 -11 -7 -17z"/>
<path d="M1070 237 c0 -1 -4 -18 -10 -36 -5 -19 -6 -30 -1 -25 10 11 24 64 16
64 -3 0 -5 -1 -5 -3z"/>
</g>
</svg>
